<?xml version="1.0" encoding="UTF-8"?>
<svg id="Layer_2" data-name="Layer 2" xmlns="http://www.w3.org/2000/svg" viewBox="0 0 228.94 200.2">
  <defs>
    <style>
      .cls-1 {
        fill: #2a2f6e;
      }

      .cls-1, .cls-2, .cls-3 {
        stroke-width: 0px;
      }

      .cls-2 {
        fill: #231f20;
      }

      .cls-3 {
        fill: #2b2e6f;
      }
    </style>
  </defs>
  <g id="Layer_1-2" data-name="Layer 1">
    <g>
      <polygon class="cls-3" points="51.74 62.07 80.17 90.49 55.83 114.15 80.17 139 51.74 166.58 0 114.32 51.74 62.07"/>
      <polygon class="cls-3" points="177.19 62.07 148.77 90.49 173.11 114.15 148.77 139 177.19 166.58 228.94 114.32 177.19 62.07"/>
      <path class="cls-1" d="m113.53,4.19l52.85,50.72-25.53,24.85-27.32-23.15-23.74,24.85-27.23-26.55L113.53,4.19m-.04-4.19l-2.08,2.07-50.98,50.72-2.16,2.15,2.18,2.13,27.23,26.55,2.17,2.12,2.09-2.19,21.79-22.81,25.16,21.32,2.08,1.76,1.95-1.9,25.53-24.85,2.22-2.16-2.24-2.15L115.61,2.03l-2.12-2.03h0Z"/>
      <path class="cls-2" d="m156.46,164.62h-3v-7.69h-8.2c-.83,0-1.5-.67-1.5-1.5v-34.24h-10.02v27.61c0,.83-.67,1.5-1.5,1.5h-6.38c-.83,0-1.5-.67-1.5-1.5v-44.2h-10.79v21.48c0,.83-.67,1.5-1.5,1.5h-3.86v25.56c0,.83-.67,1.5-1.5,1.5h-3.86v3.1c0,.83-.67,1.5-1.5,1.5h-4.34c-.83,0-1.5-.67-1.5-1.5v-23.01h-9.77v29.9h-3v-31.4c0-.83.67-1.5,1.5-1.5h12.77c.83,0,1.5.67,1.5,1.5v23.01h1.34v-3.1c0-.83.67-1.5,1.5-1.5h3.86v-25.56c0-.83.67-1.5,1.5-1.5h3.86v-21.48c0-.83.67-1.5,1.5-1.5h13.79c.83,0,1.5.67,1.5,1.5v44.2h3.38v-27.61c0-.83.67-1.5,1.5-1.5h13.02c.83,0,1.5.67,1.5,1.5v34.24h8.2c.83,0,1.5.67,1.5,1.5v9.19Z"/>
      <g>
        <path class="cls-2" d="m96.32,180.12v19.88h-4.84v-11.92l-4.45,11.92h-3.91l-4.48-11.95v11.95h-4.84v-19.88h5.72l5.58,13.77,5.52-13.77h5.69Z"/>
        <path class="cls-2" d="m104.57,180.12v11.9c0,1.19.29,2.11.88,2.75.58.64,1.45.96,2.58.96s2-.32,2.61-.96c.6-.64.91-1.56.91-2.75v-11.9h4.84v11.87c0,1.77-.38,3.28-1.13,4.5-.76,1.23-1.77,2.15-3.04,2.78-1.28.62-2.7.93-4.26.93s-2.97-.31-4.21-.92c-1.24-.61-2.21-1.54-2.93-2.78-.72-1.24-1.08-2.74-1.08-4.52v-11.87h4.84Z"/>
        <path class="cls-2" d="m132.72,181.37c1.57.83,2.78,2,3.64,3.5.86,1.5,1.29,3.23,1.29,5.2s-.43,3.67-1.29,5.18c-.86,1.51-2.08,2.68-3.65,3.51-1.58.83-3.4,1.25-5.48,1.25h-7.45v-19.88h7.45c2.1,0,3.93.42,5.5,1.25Zm-1.53,12.94c1.02-1,1.53-2.42,1.53-4.25s-.51-3.26-1.53-4.28c-1.02-1.02-2.45-1.53-4.28-1.53h-2.29v11.56h2.29c1.83,0,3.26-.5,4.28-1.5Z"/>
        <path class="cls-2" d="m157.59,180.12v19.88h-4.84v-8.19h-7.53v8.19h-4.84v-19.88h4.84v7.79h7.53v-7.79h4.84Z"/>
      </g>
    </g>
  </g>
</svg>